<svg xmlns="http://www.w3.org/2000/svg" viewBox="-10 10 520 530" width="500" height="500">
    <line class="axis" x1="10" y1="150" x2="375" y2="150" />
    <line class="line" x1="30" y1="30" x2="30" y2="480" stroke-width="8" stroke="#000000"  stroke-linecap="round"></line>
    <line class="line" x1="30" y1="480" x2="490" y2="480" stroke-width="8" stroke="#000000"  stroke-linecap="round"></line>
    
    <text text-anchor="middle" stroke-width="0.3" transform="translate(0, 10) rotate(90)" x="300" font-size="1.2rem" y="5">Pollution in {{borough}} *UNITS*</text>
    <text text-anchor="middle" stroke-width="0.3"  x="250" font-size="1.2rem" y="525">Year</text>

    {% for i in range(20, 480, 33) %}
    <text x="{{i+33}}" y="500" text-anchor="middle" stroke-width="0.3" font-size="0.6rem">{{((2009 + ((i/33)))) | int}}</text>
    <line class="line" x1="{{i+33}}" y1="480" x2="{{i+33}}" y2="490" stroke-width="2" stroke="#000000"  stroke-linecap="round"></line>

    {% endfor %}
    {% for i in range(20, 480, 31) %}
    <text x="14" y="{{i+31}}" text-anchor="middle" stroke-width="0.3" font-size="0.6rem">{{(15-(i/31)| int)}}</text>
    <line class="line" x1="18" y1="{{i+31}}" x2="30" y2="{{i+31}}" stroke-width="2" stroke="#000000"  stroke-linecap="round"></line>

    {% endfor %}

    {% for point in endpoints[0] %}
    {% if loop.index0 == 13 %}
    <line class="line" x1="{{   (35+(loop.index0)*32.8571428)   }}" y1="{{   ((((15-point - 0) * (480 - 20)) / (15 - 0)) + 20)   }}" x2="{{     (35+(loop.index0+1)*32.8571428)   }}" y2="{{    ((((15-point - 0) * (480 - 20)) / (15 - 0)) + 20)    }}" stroke-width="4" stroke="rgb(184, 96, 24)"  stroke-linecap="round"/>

    {% else %}
    <line class="line" x1="{{   (35+(loop.index0)*32.8571428)   }}" y1="{{   ((((15-point - 0) * (480 - 20)) / (15 - 0)) + 20)   }}" x2="{{     (35+(loop.index0+1)*32.8571428)   }}" y2="{{    ((((15-endpoints[0][loop.index0+1] - 0) * (480 - 20)) / (15 - 0)) + 20)    }}" stroke-width="4" stroke="rgb(184, 96, 24)"  stroke-linecap="round"/>
    {% endif %}
    {% endfor %}
 
    {% for point in endpoints[1] %}
    {% if loop.index0 == 13 %}
    <line class="line" x1="{{   (35+(loop.index0)*32.8571428)   }}" y1="{{   ((((15-point - 0) * (480 - 20)) / (15 - 0)) + 20)   }}" x2="{{     (35+(loop.index0+1)*32.8571428)   }}" y2="{{    ((((15-point - 0) * (480 - 20)) / (15 - 0)) + 20)    }}" stroke-width="4" stroke="rgb(27, 87, 110)"  stroke-linecap="round"/>

    {% else %}
    <line class="line" x1="{{   (35+(loop.index0)*32.8571428)   }}" y1="{{   ((((15-point - 0) * (480 - 20)) / (15 - 0)) + 20)   }}" x2="{{     (35+(loop.index0+1)*32.8571428)   }}" y2="{{    ((((15-endpoints[1][loop.index0+1] - 0) * (480 - 20)) / (15 - 0)) + 20)    }}" stroke-width="4" stroke="rgb(27, 87, 110)"  stroke-linecap="round"/>
    {% endif %}
    {% endfor %}

    {% for point in endpoints[2] %}
    {% if loop.index0 == 13 %}
    <line class="line" x1="{{   (35+(loop.index0)*32.8571428)   }}" y1="{{   ((((15-point - 0) * (480 - 20)) / (15 - 0)) + 20)   }}" x2="{{     (35+(loop.index0+1)*32.8571428)   }}" y2="{{    ((((15-point - 0) * (480 - 20)) / (15 - 0)) + 20)    }}" stroke-width="4" stroke="rgb(161, 30, 161)"  stroke-linecap="round"/>

    {% else %}
    <line class="line" x1="{{   (35+(loop.index0)*32.8571428)   }}" y1="{{   ((((15-point - 0) * (480 - 20)) / (15 - 0)) + 20)   }}" x2="{{     (35+(loop.index0+1)*32.8571428)   }}" y2="{{    ((((15-endpoints[2][loop.index0+1] - 0) * (480 - 20)) / (15 - 0)) + 20)    }}" stroke-width="4" stroke="rgb(161, 30, 161)"  stroke-linecap="round"/>
    {% endif %}
    {% endfor %}

    {% for point in endpoints[3] %}
    {% if loop.index0 == 13 %}
    <line class="line" x1="{{   (35+(loop.index0)*32.8571428)   }}" y1="{{   ((((15-point - 0) * (480 - 20)) / (15 - 0)) + 20)   }}" x2="{{     (35+(loop.index0+1)*32.8571428)   }}" y2="{{    ((((15-point - 0) * (480 - 20)) / (15 - 0)) + 20)    }}" stroke-width="4" stroke="rgb(30, 139, 161)"  stroke-linecap="round"/>

    {% else %}
    <line class="line" x1="{{   (35+(loop.index0)*32.8571428)   }}" y1="{{   ((((15-point - 0) * (480 - 20)) / (15 - 0)) + 20)   }}" x2="{{     (35+(loop.index0+1)*32.8571428)   }}" y2="{{    ((((15-endpoints[3][loop.index0+1] - 0) * (480 - 20)) / (15 - 0)) + 20)    }}" stroke-width="4" stroke="rgb(30, 139, 161)"  stroke-linecap="round"/>
    {% endif %}
    {% endfor %}
</svg>
